# Blender 3.4.1
# www.blender.org
mtllib p2.mtl
o Cube
v -0.300672 -0.072320 -0.878226
v -0.376499 -0.033695 -0.767072
v 0.993385 0.000989 -0.807723
v -0.376434 0.107605 -0.894918
v 0.896279 0.000893 -0.762220
v -0.376499 0.032082 -1.134091
v -0.285253 -0.052427 -0.062155
v -0.376434 -0.109217 -1.006244
v 0.442397 -0.002409 -0.031921
v 0.576783 -0.000806 -0.950581
v -0.288552 -0.070597 -0.878497
v 0.399151 -0.002174 -0.062255
v -0.273133 -0.050704 -0.062426
v 0.001745 0.441340 -0.651816
v -0.277002 -0.066543 -0.878814
v 0.001574 0.398198 -0.621554
v -0.261584 -0.046651 -0.062743
v 0.001461 0.307896 -0.029751
v -0.266466 -0.060315 -0.879165
v 0.001318 0.277798 -0.060297
v -0.251048 -0.040422 -0.063094
v -0.000520 -0.438423 -0.655737
v -0.241931 -0.032258 -0.063465
v -0.000469 -0.395566 -0.625091
v -0.000855 -0.309833 -0.032511
v -0.000771 -0.279546 -0.062787
v -0.234584 -0.022472 -0.063843
v -0.766789 0.003579 -0.619373
v -0.229288 -0.011440 -0.064212
v -0.691833 0.003229 -0.592282
v -0.441003 -0.000128 -0.030801
v -0.226247 0.000414 -0.064558
v -0.397893 -0.000116 -0.061245
v -0.688818 0.003195 -0.627689
v -0.688469 0.003464 -0.627754
v -0.225578 0.012634 -0.064869
v -0.004545 -0.391510 -0.660161
v 0.891844 0.000865 -0.796829
v -0.227307 0.024751 -0.065131
v 0.891273 0.001140 -0.796796
v 0.887272 -0.001923 -0.796051
v -0.231367 0.036299 -0.065336
v -0.000472 -0.394401 -0.660298
v -0.684943 0.005958 -0.627847
v -0.237602 0.046834 -0.065475
v 0.005084 0.394663 -0.657469
v 0.001572 0.397001 -0.656829
v -0.245773 0.055952 -0.065543
v 0.831034 -0.019504 -0.752202
v -0.255566 0.063301 -0.065537
v 0.863674 0.000691 -0.757165
v 0.027650 0.371939 -0.625724
v 0.001556 0.389443 -0.621593
v -0.266603 0.068601 -0.065458
v 0.001552 0.389440 -0.621593
v -0.278462 0.071646 -0.065308
v -0.000447 -0.387108 -0.625053
v -0.669767 0.002978 -0.593272
v -0.290686 0.072320 -0.065093
v -0.641427 0.023195 -0.594449
v -0.030303 -0.365880 -0.623618
v -0.000491 -0.387128 -0.625051
v -0.346652 0.031332 -0.063037
v -0.349693 0.019478 -0.062691
v -0.350362 0.007258 -0.062380
v -0.348633 -0.004859 -0.062117
v -0.344573 -0.016407 -0.061913
v -0.338337 -0.026942 -0.061774
v -0.330167 -0.036059 -0.061706
v -0.320374 -0.043409 -0.061712
v -0.324755 -0.068601 -0.877861
v -0.309336 -0.048708 -0.061791
v -0.312896 -0.071646 -0.878011
v -0.297477 -0.051753 -0.061941
v -0.334324 0.051743 -0.080485
v -0.341460 0.042230 -0.068911
v -0.342990 0.038960 -0.063292
v -0.325285 0.059807 -0.084981
v -0.314691 0.066111 -0.082225
v -0.302948 0.070414 -0.072323
v -0.297439 0.071360 -0.064943
v -0.256982 -0.051676 -0.860076
v -0.264367 -0.058435 -0.879250
v -0.249041 -0.041124 -0.829060
v -0.256785 -0.051414 -0.859307
v -0.243059 -0.029208 -0.793129
v -0.248651 -0.040347 -0.826717
v -0.242750 -0.027967 -0.793826
v -0.239780 -0.006625 -0.813613
v -0.241951 0.007002 -0.825591
v -0.251983 0.027390 -0.842419
v -0.260258 0.036486 -0.849313
v -0.260586 0.036840 -0.849581
v -0.270839 0.044242 -0.854624
v -0.293790 0.052336 -0.858245
v -0.305647 0.053018 -0.856949
v -0.306010 0.052968 -0.856846
v -0.317707 0.051372 -0.853515
v -0.329590 0.047192 -0.847817
v -0.329161 0.047442 -0.848112
v -0.347998 0.033888 -0.832812
v -0.360801 0.013077 -0.811919
v -0.362189 -0.022349 -0.779644
v -0.358506 -0.032189 -0.771336
v -0.352488 -0.045199 -0.810746
v -0.357324 -0.035147 -0.777456
v -0.344956 -0.055141 -0.844502
v -0.351894 -0.045984 -0.813411
v -0.344591 -0.055457 -0.845615
v -0.266540 -0.058627 -0.879204
v -0.266202 -0.058597 -0.879211
v -0.243025 -0.029090 -0.792766
v -0.270472 0.044069 -0.854526
v -0.363642 0.001482 -0.800970
v -0.358004 -0.033735 -0.772780
v -0.358180 -0.033063 -0.770598
v -0.264775 -0.058471 -0.879241
v -0.332560 -0.064479 -0.877814
v -0.311504 -0.062613 -0.878258
v -0.315029 -0.062925 -0.878183
v -0.313282 -0.062770 -0.878220
v -0.242217 -0.025793 -0.795879
v -0.240210 -0.017601 -0.803614
v -0.239946 -0.010852 -0.809762
v -0.239741 -0.005639 -0.814512
v -0.241528 0.005402 -0.824212
v -0.243781 0.011890 -0.829719
v -0.245899 0.017550 -0.834498
v -0.248391 0.021581 -0.837742
v -0.253712 0.029422 -0.843978
v -0.252289 0.027886 -0.842818
v -0.262837 0.038486 -0.850707
v -0.270142 0.043828 -0.854361
v -0.274047 0.045753 -0.855473
v -0.281567 0.049295 -0.857465
v -0.293108 0.052231 -0.858259
v -0.317854 0.051322 -0.853446
v -0.318103 0.051236 -0.853328
v -0.343529 0.037860 -0.837126
v -0.339568 0.041379 -0.840949
v -0.348528 0.033417 -0.832300
v -0.355193 0.024534 -0.823188
v -0.361126 0.011749 -0.810665
v -0.363374 0.002573 -0.802001
v -0.363687 0.000327 -0.799918
v -0.364110 -0.010480 -0.790072
v -0.363313 -0.015407 -0.785744
v -0.363900 -0.011782 -0.788929
v -0.339760 -0.059652 -0.860355
v -0.335697 -0.063179 -0.872749
v -0.335634 -0.063214 -0.872879
v -0.333218 -0.064538 -0.877800
v -0.239749 -0.005826 -0.814342
v -0.241662 0.006230 -0.824940
v -0.241754 0.006476 -0.825148
v -0.252219 0.027772 -0.842727
v -0.270310 0.043950 -0.854445
v -0.293444 0.052316 -0.858283
v -0.293552 0.052322 -0.858271
v -0.327910 0.047871 -0.848702
v -0.332814 0.045314 -0.845598
v -0.348299 0.033621 -0.832521
v -0.355698 0.023860 -0.822497
v -0.360383 0.013960 -0.812785
v -0.360743 0.013200 -0.812039
v -0.363575 0.001754 -0.801227
v -0.363651 0.001248 -0.800757
v -0.332981 -0.064517 -0.877805
v -0.266872 -0.058657 -0.879197
v -0.288986 -0.060617 -0.878732
v -0.296290 -0.061264 -0.878578
v -0.266545 -0.058628 -0.879204
v -0.361590 -0.020520 -0.781396
v -0.354027 0.026049 -0.824747
v -0.326799 0.048175 -0.849156
v -0.356471 0.015763 -0.815047
v -0.357791 0.005763 -0.805787
v -0.343457 0.023357 -0.824016
v -0.342862 0.000113 -0.803083
v -0.293260 0.052254 -0.858256
v -0.240793 0.000345 -0.819755
v -0.267821 0.042103 -0.853176
v -0.270562 0.044077 -0.854519
v -0.241709 0.006085 -0.824801
v -0.308968 0.052544 -0.855985
v -0.311739 0.028180 -0.833495
v -0.316022 0.012805 -0.818894
v -0.300550 0.017669 -0.825791
v -0.242299 -0.015665 -0.805028
v -0.319923 -0.062985 -0.876897
v -0.315729 -0.062935 -0.878003
v -0.333624 -0.064041 -0.876106
v -0.272709 -0.055965 -0.868913
v -0.276234 -0.057054 -0.871299
v -0.263591 -0.056341 -0.872855
v -0.324588 -0.057314 -0.857528
vn -0.1059 -0.1023 -0.9891
vn -0.1060 -0.1025 -0.9891
vn -0.5630 0.8081 0.1731
vn -0.5670 -0.8068 0.1662
vn 0.0007 -0.0045 1.0000
vn 0.5674 0.8051 0.1730
vn 0.5617 -0.8102 0.1675
vn 0.0448 -0.0046 0.9990
vn 0.1532 -0.0048 0.9882
vn 0.5444 -0.7809 -0.3062
vn 0.5448 -0.7811 -0.3052
vn 0.4737 0.8424 -0.2569
vn -0.0018 0.0045 -1.0000
vn -0.5674 -0.8051 -0.1730
vn -0.5617 0.8102 -0.1675
vn 0.4807 -0.8574 -0.1837
vn -0.4261 -0.8512 -0.3064
vn -0.4208 0.8884 -0.1835
vn 0.1412 -0.9898 0.0215
vn 0.3315 -0.9433 0.0167
vn 0.5092 -0.8606 0.0114
vn 0.6672 -0.7448 0.0055
vn 0.7997 -0.6004 -0.0005
vn 0.9014 -0.4329 -0.0065
vn 0.9685 -0.2488 -0.0122
vn 0.9983 -0.0551 -0.0175
vn 0.9898 0.1407 -0.0221
vn 0.9432 0.3312 -0.0259
vn 0.8604 0.5088 -0.0287
vn 0.7445 0.6670 -0.0303
vn 0.6000 0.7994 -0.0308
vn 0.4324 0.9012 -0.0301
vn 0.2483 0.9683 -0.0283
vn 0.0546 0.9982 -0.0254
vn -0.1412 0.9898 -0.0215
vn -0.3315 0.9433 -0.0167
vn -0.5092 0.8606 -0.0114
vn -0.6672 0.7448 -0.0055
vn -0.7997 0.6004 0.0005
vn -0.9014 0.4329 0.0065
vn -0.9685 0.2488 0.0122
vn -0.9983 0.0551 0.0175
vn -0.9898 -0.1407 0.0221
vn -0.9432 -0.3312 0.0259
vn -0.8604 -0.5088 0.0287
vn -0.7445 -0.6670 0.0303
vn -0.6000 -0.7994 0.0308
vn -0.4324 -0.9012 0.0301
vn 0.0189 0.0244 0.9995
vn -0.2483 -0.9683 0.0283
vn -0.0546 -0.9982 0.0254
vn -0.0189 -0.0244 -0.9995
vn -0.1060 -0.1024 -0.9891
vn -0.1056 0.1121 -0.9881
vn -0.4688 0.8427 0.2648
vn -0.4737 -0.8424 0.2569
vn 0.0018 -0.0045 1.0000
vn 0.4262 0.8512 0.3064
vn 0.4237 -0.8556 0.2972
vn 0.1581 -0.0012 0.9874
vn 0.0450 -0.0041 0.9990
vn 0.4718 -0.8466 -0.2465
vn 0.5564 -0.8125 -0.1740
vn 0.5381 -0.8212 -0.1901
vn 0.5670 0.8068 -0.1662
vn -0.0007 0.0045 -1.0000
vn -0.4262 -0.8512 -0.3064
vn -0.4237 0.8556 -0.2972
vn 0.5445 -0.7813 -0.3050
vn 0.4807 -0.8575 -0.1837
vn 0.4818 -0.8569 -0.1834
vn -0.5286 0.7629 -0.3721
vn -0.5287 0.7629 -0.3721
vn -0.4210 0.8883 -0.1835
vn 0.0189 0.0243 0.9995
vn -0.0189 -0.0243 -0.9995
vn -0.0188 -0.0243 -0.9995
vn -0.1174 -0.6662 -0.7365
vn -0.1197 -0.6655 -0.7367
vn -0.1188 -0.6661 -0.7363
vn -0.0905 0.9497 -0.2999
vn 0.1188 0.6661 0.7363
vn 0.0905 0.9497 -0.2999
vn 0.1188 -0.6661 -0.7363
vn 0.0905 -0.9497 0.2999
vn -1.0000 -0.0000 -0.0000
vt 1.000000 0.500000
vt 0.000000 0.500000
vt 0.750000 0.490000
vt 0.187175 0.457104
vt 0.687175 0.457104
vt 0.625000 0.500000
vt 0.457104 0.312825
vt 0.957104 0.312825
vt 0.625000 0.500000
vt 0.312825 0.042896
vt 0.812825 0.042896
vt 1.000000 1.000000
vt 0.250000 0.490000
vt 0.000000 1.000000
vt 0.042896 0.187175
vt 0.542896 0.187175
vt 0.375000 0.500000
vt 0.250000 0.250000
vt 0.968750 0.500000
vt 0.796822 0.485388
vt 0.375000 0.500000
vt 0.968750 1.000000
vt 0.296822 0.485388
vt 0.625000 0.750000
vt 0.937500 0.500000
vt 0.841844 0.471731
vt 0.625000 0.750000
vt 0.937500 1.000000
vt 0.341844 0.471731
vt 0.375000 0.750000
vt 0.906250 0.500000
vt 0.883337 0.449553
vt 0.375000 0.750000
vt 0.906250 1.000000
vt 0.383337 0.449553
vt 0.875000 0.500000
vt 0.625000 0.250000
vt 0.875000 1.000000
vt 0.419706 0.419706
vt 0.875000 0.500000
vt 0.625000 0.250000
vt 0.375000 0.250000
vt 0.125000 0.500000
vt 0.375000 0.250000
vt 0.125000 0.500000
vt 0.843750 1.000000
vt 0.449553 0.383337
vt 0.875000 0.750000
vt 0.625000 1.000000
vt 0.625000 0.000000
vt 0.812500 1.000000
vt 0.471731 0.341844
vt 0.625000 0.000000
vt 0.875000 0.750000
vt 0.625000 1.000000
vt 0.125000 0.750000
vt 0.375000 1.000000
vt 0.375000 0.000000
vt 0.781250 1.000000
vt 0.485388 0.296822
vt 0.375000 1.000000
vt 0.375000 0.000000
vt 0.125000 0.750000
vt 0.862410 0.737298
vt 0.622436 1.000000
vt 0.622436 0.000000
vt 0.862276 0.737318
vt 0.622464 0.999840
vt 0.750000 1.000000
vt 0.490000 0.250000
vt 0.863274 0.514892
vt 0.622468 0.248298
vt 0.637864 0.512751
vt 0.622770 0.500000
vt 0.718750 1.000000
vt 0.485388 0.203178
vt 0.637858 0.512901
vt 0.622790 0.500183
vt 0.639237 0.512538
vt 0.622812 0.498549
vt 0.687500 1.000000
vt 0.471731 0.158156
vt 0.863447 0.513428
vt 0.622490 0.250000
vt 0.860999 0.737463
vt 0.622482 0.998408
vt 0.656250 1.000000
vt 0.449553 0.116663
vt 0.638772 0.737206
vt 0.622510 0.748719
vt 0.638564 0.738326
vt 0.622515 0.750000
vt 0.625000 1.000000
vt 0.419706 0.080294
vt 0.640561 0.502693
vt 0.609128 0.489428
vt 0.593750 1.000000
vt 0.383337 0.050447
vt 0.629647 0.504510
vt 0.608603 0.500000
vt 0.629908 0.738368
vt 0.606547 0.740325
vt 0.627988 0.747467
vt 0.606820 0.750000
vt 0.562500 1.000000
vt 0.341844 0.028269
vt 0.627989 0.747466
vt 0.606820 0.750002
vt 0.531250 1.000000
vt 0.296822 0.014612
vt 0.872559 0.502881
vt 0.606818 0.250016
vt 0.606233 0.000000
vt 0.871116 0.745995
vt 0.606233 1.000000
vt 0.250000 0.010000
vt 0.500000 1.000000
vt 0.859625 0.747288
vt 0.606583 0.988259
vt 0.871329 0.514969
vt 0.606461 0.237404
vt 0.872572 0.502880
vt 0.606819 0.250000
vt 0.312500 1.000000
vt 0.028269 0.158156
vt 0.281250 1.000000
vt 0.014612 0.203178
vt 0.250000 1.000000
vt 0.010000 0.250000
vt 0.218750 1.000000
vt 0.014612 0.296822
vt 0.187500 1.000000
vt 0.028269 0.341844
vt 0.156250 1.000000
vt 0.050447 0.383337
vt 0.125000 1.000000
vt 0.080294 0.419706
vt 0.093750 1.000000
vt 0.116663 0.449553
vt 0.062500 0.500000
vt 0.658156 0.471731
vt 0.158156 0.471731
vt 0.062500 1.000000
vt 0.031250 0.500000
vt 0.703178 0.485388
vt 0.203178 0.485388
vt 0.031250 1.000000
vt 0.384050 0.955936
vt 0.375000 0.989767
vt 0.378640 0.962960
vt 0.343750 0.996627
vt 0.334106 1.000000
vt 0.376016 0.965148
vt 0.043603 0.129468
vt 0.386156 0.949343
vt 0.406250 0.987240
vt 0.384878 0.943400
vt 0.437500 0.989144
vt 0.380270 0.938209
vt 0.468750 0.995404
vt 0.376835 0.936291
vt 0.482588 1.000000
vt 0.223912 0.012569
vt 0.875000 0.511923
vt 0.152823 0.352140
vt 0.899054 0.500000
vt 0.891712 0.442680
vt 0.139911 0.330501
vt 0.843750 0.531157
vt 0.172980 0.387145
vt 0.874225 0.512400
vt 0.153323 0.353008
vt 0.812500 0.553398
vt 0.195746 0.427697
vt 0.841712 0.532608
vt 0.174465 0.389790
vt 0.809188 0.552994
vt 0.198116 0.426910
vt 0.752577 0.541234
vt 0.238886 0.404580
vt 0.716620 0.534081
vt 0.264918 0.391062
vt 0.657748 0.523968
vt 0.303867 0.372071
vt 0.626237 0.519788
vt 0.321242 0.364291
vt 0.625000 0.519626
vt 0.321919 0.363989
vt 0.592717 0.516531
vt 0.336059 0.358298
vt 0.530364 0.514170
vt 0.351521 0.354211
vt 0.500000 0.514836
vt 0.352823 0.355674
vt 0.499060 0.514895
vt 0.352729 0.355790
vt 0.468750 0.516774
vt 0.349679 0.359550
vt 0.436213 0.520062
vt 0.341695 0.365980
vt 0.437500 0.519890
vt 0.342172 0.365647
vt 0.376849 0.528836
vt 0.316280 0.382914
vt 0.312500 0.541166
vt 0.276525 0.406493
vt 0.218750 0.560377
vt 0.208849 0.442916
vt 0.191585 0.565358
vt 0.190051 0.452292
vt 0.156250 0.541110
vt 0.165198 0.407814
vt 0.183651 0.561582
vt 0.184401 0.445385
vt 0.125000 0.520387
vt 0.146204 0.369717
vt 0.153783 0.539474
vt 0.163698 0.404806
vt 0.123768 0.519705
vt 0.145599 0.368461
vt 0.883337 0.443060
vt 0.139543 0.330553
vt 0.884640 0.443001
vt 0.139601 0.330545
vt 0.812212 0.553622
vt 0.195972 0.428106
vt 0.593750 0.516592
vt 0.335729 0.358407
vt 0.281250 0.547662
vt 0.254374 0.418848
vt 0.187500 0.564457
vt 0.187099 0.450662
vt 0.189174 0.565800
vt 0.188383 0.453124
vt 0.890138 0.442751
vt 0.139842 0.330511
vt 0.628876 0.454611
vt 0.128364 0.332121
vt 0.710033 0.450927
vt 0.131929 0.331621
vt 0.696446 0.451544
vt 0.131332 0.331705
vt 0.703178 0.451238
vt 0.131628 0.331663
vt 0.803329 0.551776
vt 0.202269 0.424594
vt 0.781250 0.547186
vt 0.217919 0.415864
vt 0.763620 0.543527
vt 0.230811 0.408926
vt 0.750000 0.540699
vt 0.240770 0.403565
vt 0.720932 0.534906
vt 0.261861 0.392618
vt 0.703124 0.531606
vt 0.274257 0.386403
vt 0.687500 0.528741
vt 0.285069 0.381010
vt 0.675313 0.526786
vt 0.292768 0.377349
vt 0.650889 0.523024
vt 0.307748 0.370311
vt 0.656250 0.523728
vt 0.304813 0.371621
vt 0.617885 0.518935
vt 0.325063 0.362718
vt 0.594793 0.516694
vt 0.335268 0.358594
vt 0.583682 0.515997
vt 0.338945 0.357339
vt 0.562500 0.514744
vt 0.345711 0.355092
vt 0.532135 0.514167
vt 0.351320 0.354195
vt 0.468351 0.516814
vt 0.349584 0.359627
vt 0.467671 0.516882
vt 0.349420 0.359760
vt 0.392437 0.526306
vt 0.323867 0.378046
vt 0.406250 0.524064
vt 0.330591 0.373731
vt 0.375000 0.529136
vt 0.315380 0.383492
vt 0.345952 0.534504
vt 0.298410 0.393775
vt 0.308920 0.541910
vt 0.273987 0.407908
vt 0.284191 0.547050
vt 0.256458 0.417686
vt 0.278232 0.548288
vt 0.252167 0.420036
vt 0.250000 0.554149
vt 0.231523 0.431147
vt 0.237028 0.556734
vt 0.222111 0.436032
vt 0.246573 0.554832
vt 0.229036 0.432438
vt 0.107461 0.510676
vt 0.137586 0.351825
vt 0.093750 0.503084
vt 0.130848 0.337838
vt 0.093562 0.503004
vt 0.130781 0.337691
vt 0.086460 0.500000
vt 0.626343 0.454726
vt 0.128252 0.332137
vt 0.750488 0.540801
vt 0.240414 0.403758
vt 0.718750 0.534471
vt 0.263444 0.391797
vt 0.718070 0.534347
vt 0.263914 0.391562
vt 0.656593 0.523783
vt 0.304597 0.371724
vt 0.594263 0.516642
vt 0.335502 0.358499
vt 0.531250 0.514151
vt 0.351484 0.354169
vt 0.530974 0.514157
vt 0.351495 0.354182
vt 0.440913 0.519550
vt 0.342992 0.364981
vt 0.426530 0.521356
vt 0.338107 0.368485
vt 0.375800 0.529006
vt 0.315769 0.383242
vt 0.343750 0.534911
vt 0.297124 0.394554
vt 0.315058 0.540654
vt 0.278211 0.405515
vt 0.312855 0.541095
vt 0.276759 0.406357
vt 0.281983 0.547509
vt 0.254893 0.418559
vt 0.280638 0.547789
vt 0.253926 0.419089
vt 0.627254 0.454685
vt 0.128292 0.332131
vt 0.882057 0.443118
vt 0.139487 0.330560
vt 0.796822 0.446987
vt 0.135742 0.331086
vt 0.768673 0.448265
vt 0.134506 0.331259
vt 0.883318 0.443061
vt 0.139543 0.330553
vt 0.212343 0.440939
vt 0.301305 0.392015
vt 0.343572 0.364468
vt 0.281655 0.402962
vt 0.262552 0.413413
vt 0.296162 0.392840
vt 0.251758 0.416464
vt 0.351365 0.354198
vt 0.252201 0.397648
vt 0.331973 0.359932
vt 0.335744 0.358415
vt 0.263166 0.391954
vt 0.351920 0.356761
vt 0.305376 0.382142
vt 0.276004 0.398620
vt 0.285297 0.390837
vt 0.221617 0.414268
vt 0.131218 0.333157
vt 0.131314 0.331908
vt 0.129200 0.334049
vt 0.144629 0.342167
vt 0.142548 0.339475
vt 0.143911 0.337719
vt 0.142053 0.355016
s 0
usemtl Material
f 28/48/1 35/67/1 34/64/1
f 3/6/2 38/73/2 40/77/2
f 14/24/3 31/57/3 18/30/3
f 31/58/4 22/37/4 25/42/4
f 25/43/5 18/30/5 31/56/5
f 9/17/6 14/24/6 18/30/6
f 22/37/7 9/17/7 25/42/7
f 30/54/8 58/114/8 60/118/8
f 5/9/9 51/99/9 49/95/9
f 78/155/10 75/148/10 30/55/10
f 81/161/11 33/61/11 77/153/11
f 33/62/12 24/41/12 30/53/12
f 26/45/13 20/33/13 12/21/13
f 16/27/14 12/21/14 20/33/14
f 12/21/15 24/41/15 26/44/15
f 60/119/16 47/92/16 55/108/16
f 34/66/12 58/113/12 61/121/12
f 40/78/17 38/74/17 51/100/17
f 57/112/18 49/96/18 43/84/18
f 43/83/53 22/36/53 37/71/53
f 22/36/53 28/48/53 34/64/53
f 37/71/53 22/36/53 34/64/53
f 28/48/54 14/24/54 44/85/54
f 14/24/54 47/91/54 44/85/54
f 28/48/54 44/85/54 35/67/54
f 46/89/54 47/91/54 14/24/54
f 22/36/53 41/79/53 3/6/53
f 22/36/53 43/83/53 41/79/53
f 46/89/54 14/24/54 40/77/54
f 40/77/54 14/24/54 3/6/54
f 3/6/53 41/79/53 38/73/53
f 14/24/55 28/49/55 31/57/55
f 31/58/56 28/50/56 22/37/56
f 25/43/57 9/17/57 18/30/57
f 14/24/58 9/17/58 3/6/58
f 22/37/59 3/6/59 9/17/59
f 60/118/8 55/107/8 16/27/8
f 55/107/60 53/103/60 16/27/60
f 16/27/8 30/54/8 60/118/8
f 30/54/8 24/40/8 61/120/8
f 24/40/8 62/122/8 61/120/8
f 61/120/8 58/114/8 30/54/8
f 57/111/61 62/122/61 24/40/61
f 5/9/9 16/27/9 52/101/9
f 16/27/9 53/103/9 52/101/9
f 52/101/9 51/99/9 5/9/9
f 49/95/9 57/111/9 24/40/9
f 49/95/9 24/40/9 5/9/9
f 77/153/10 33/61/10 76/150/10
f 33/61/10 30/55/10 75/148/10
f 76/150/10 33/61/10 75/148/10
f 30/55/62 16/27/62 78/155/62
f 16/27/63 20/33/63 79/157/63
f 20/33/10 81/161/10 80/159/10
f 20/33/10 80/159/10 79/157/10
f 16/27/64 79/157/64 78/155/64
f 81/161/10 20/33/10 33/61/10
f 33/62/65 26/44/65 24/41/65
f 26/45/66 33/63/66 20/33/66
f 16/27/67 5/9/67 12/21/67
f 12/21/68 5/9/68 24/41/68
f 60/119/10 58/115/10 44/86/10
f 58/115/10 34/65/10 44/86/10
f 34/65/69 35/68/69 44/86/69
f 44/86/70 47/92/70 60/119/70
f 47/92/71 53/104/71 55/108/71
f 61/121/65 62/123/65 37/72/65
f 62/123/65 43/84/65 37/72/65
f 37/72/12 34/66/12 61/121/12
f 51/100/67 52/102/67 46/90/67
f 52/102/14 53/104/14 46/90/14
f 53/104/14 47/92/14 46/90/14
f 46/90/67 40/78/67 51/100/67
f 49/96/72 51/100/72 41/80/72
f 51/100/73 38/74/73 41/80/73
f 43/84/18 49/96/18 41/80/18
f 43/84/74 62/123/74 57/112/74
usemtl 
f 11/19/19 13/22/19 1/1/19
f 15/25/20 13/22/20 11/19/20
f 19/31/21 21/34/21 15/25/21
f 23/38/22 19/31/22 83/166/22 82/164/22
f 84/169/23 27/46/23 85/171/23
f 86/173/24 29/51/24 87/175/24
f 32/59/25 88/177/25 122/245/25 123/247/25
f 89/179/26 32/59/26 123/247/26 124/249/26
f 36/69/27 125/251/27 126/253/27
f 128/257/28 42/81/28 90/181/28 127/255/28
f 91/183/29 42/81/29 128/257/29 129/259/29
f 92/185/30 45/87/30 131/263/30 130/261/30
f 48/93/31 93/187/31 132/265/31 133/267/31
f 135/271/32 54/105/32 94/189/32 134/269/32
f 54/105/33 135/271/33 136/273/33
f 96/193/34 59/117/34 95/191/34
f 97/195/35 98/197/35 80/160/35
f 79/158/36 80/160/36 98/197/36 137/275/36 138/277/36
f 78/156/37 79/158/37 100/201/37 99/199/37
f 139/279/38 101/203/38 78/156/38 140/281/38
f 75/149/39 141/283/39 142/285/39
f 63/124/40 77/152/40 76/151/40
f 63/124/41 102/205/41 143/287/41 144/289/41
f 65/128/42 145/291/42 146/293/42
f 147/295/43 103/207/43 66/130/43 148/297/43
f 103/207/44 104/209/44 66/130/44
f 106/213/45 105/211/45 68/134/45
f 108/217/46 107/215/46 69/136/46
f 150/301/47 70/138/47 109/219/47 149/299/47
f 71/140/48 72/143/48 151/303/48 152/305/48
f 56/110/49 59/116/49 81/163/49
f 71/140/50 73/144/50 74/147/50
f 73/144/51 1/2/51 74/147/51
f 19/32/52 110/221/52 111/223/52
f 1/1/19 13/22/19 7/12/19
f 15/25/20 17/28/20 13/22/20
f 15/25/21 21/34/21 17/28/21
f 19/31/22 23/38/22 21/34/22
f 85/171/23 27/46/23 23/38/23 82/164/23
f 87/175/24 29/51/24 27/46/24 84/169/24
f 88/177/25 32/59/25 29/51/25 86/173/25 112/225/25
f 36/69/26 32/59/26 89/179/26 153/308/26 125/251/26
f 154/310/27 39/75/27 36/69/27 126/253/27
f 90/181/28 42/81/28 39/75/28 154/310/28 155/312/28
f 131/263/29 45/87/29 42/81/29 91/183/29 156/314/29
f 93/187/30 48/93/30 45/87/30 92/185/30
f 113/227/31 50/97/31 48/93/31 133/267/31 157/316/31
f 113/227/32 94/189/32 54/105/32 50/97/32
f 158/318/33 56/109/33 54/105/33 136/273/33
f 95/191/34 59/117/34 56/109/34 158/318/34 159/320/34
f 80/160/35 81/162/35 59/117/35
f 80/160/35 59/117/35 96/193/35 97/195/35
f 160/322/36 100/201/36 79/158/36 138/277/36
f 78/156/37 99/199/37 161/324/37 140/281/37
f 75/149/38 78/156/38 101/203/38 162/326/38 141/283/38
f 76/151/39 75/149/39 142/285/39 163/328/39
f 76/151/40 163/328/40 164/330/40
f 165/332/40 102/205/40 63/124/40 76/151/40 164/330/40
f 166/334/41 114/229/41 64/126/41 63/124/41 144/289/41
f 65/128/42 64/126/42 114/229/42 167/336/42 145/291/42
f 66/130/43 65/128/43 146/293/43 148/297/43
f 116/233/44 115/231/44 67/132/44 66/130/44 104/209/44
f 68/134/45 67/132/45 115/231/45 106/213/45
f 69/136/46 68/134/46 105/211/46 108/217/46
f 70/138/47 69/136/47 107/215/47 109/219/47
f 72/143/48 70/138/48 150/301/48 151/303/48
f 81/163/49 77/154/49 13/23/49
f 77/154/49 63/125/49 64/127/49
f 72/142/49 77/154/49 70/139/49
f 64/127/49 65/129/49 77/154/49
f 65/129/49 66/131/49 77/154/49
f 66/131/49 67/133/49 77/154/49
f 67/133/49 68/135/49 77/154/49
f 68/135/49 69/137/49 77/154/49
f 69/137/49 70/139/49 77/154/49
f 72/142/49 74/146/49 77/154/49
f 74/146/49 7/13/49 77/154/49
f 7/13/49 13/23/49 77/154/49
f 13/23/49 17/29/49 81/163/49
f 17/29/49 21/35/49 81/163/49
f 21/35/49 23/39/49 81/163/49
f 23/39/49 27/47/49 81/163/49
f 27/47/49 29/52/49 81/163/49
f 29/52/49 32/60/49 81/163/49
f 32/60/49 36/70/49 81/163/49
f 36/70/49 39/76/49 81/163/49
f 39/76/49 42/82/49 81/163/49
f 42/82/49 45/88/49 81/163/49
f 45/88/49 48/94/49 81/163/49
f 48/94/49 50/98/49 81/163/49
f 50/98/49 54/106/49 81/163/49
f 54/106/75 56/110/75 81/163/75
f 71/140/50 74/147/50 72/143/50
f 74/147/51 1/2/51 7/14/51
f 19/32/52 117/235/52 83/167/52
f 15/26/52 11/20/52 19/32/52
f 1/3/52 73/145/52 11/20/52
f 71/141/76 152/306/76 168/338/76 118/237/76 73/145/76
f 19/32/52 111/223/52 117/235/52
f 169/340/52 19/32/52 11/20/52 170/342/52
f 170/342/52 11/20/52 73/145/52 119/239/52 171/344/52
f 73/145/52 118/237/52 120/241/52
f 73/145/52 120/241/52 121/243/52
f 73/145/76 121/243/76 119/239/76
f 172/346/77 110/221/77 19/32/77 169/340/77
f 102/206/78 165/333/78 143/288/78
f 114/230/79 166/335/79 167/337/79
f 156/315/80 91/184/80 129/260/80 127/256/80 90/182/80 155/313/80 184/359/80 189/364/80 181/356/80 153/309/80 89/180/80 124/250/80 122/246/80 88/178/80 112/226/80 116/234/80 104/210/80 103/208/80 147/296/80 173/348/80 178/353/80 177/352/80 176/351/80 174/349/80 162/327/80 101/204/80 139/280/80 161/325/80 99/200/80 100/202/80 160/323/80 175/350/80 179/354/80 185/360/80 137/276/80 98/198/80 97/196/80 96/194/80 95/192/80 159/321/80 180/355/80 186/361/80 187/362/80 134/270/80 94/190/80 113/228/80 157/317/80 183/358/80 188/363/80 182/357/80 132/266/80 93/188/80 92/186/80 130/262/80
f 171/345/81 119/240/81 121/244/81 120/242/81 118/238/81 168/339/81 192/367/81 191/366/81 190/365/81 149/300/81 109/220/81 107/216/81 108/218/81 105/212/81 106/214/81 115/232/81 116/234/81 112/226/81 86/174/81 87/176/81 84/170/81 85/172/81 82/165/81 83/168/81 117/236/81 111/224/81 110/222/81 172/347/81 195/370/81 194/369/81 193/368/81 196/371/81
f 160/323/82 4/7/82 2/4/82 173/348/82 147/296/82 148/298/82 146/294/82 145/292/82 167/337/82 166/335/82 144/290/82 143/288/82 165/333/82 164/331/82 163/329/82 142/286/82 141/284/82 162/327/82 139/280/82 140/282/82 161/325/82 175/350/82
f 127/256/82 129/260/82 156/315/82 130/262/82 132/266/82 182/357/82 188/363/82 184/359/82 155/313/82
f 159/321/82 185/360/82 179/354/82 187/362/82 186/361/82 180/355/82
f 134/270/82 187/362/82 188/363/82 183/358/82
f 189/364/82 122/246/82 124/250/82 153/309/82 181/356/82
f 179/354/82 175/350/82 161/325/82 139/280/82 162/327/82 174/349/82 176/351/82 177/352/82 178/353/82 173/348/82 2/4/82 10/18/82 4/7/82 160/323/82 138/278/82 137/276/82 185/360/82 159/321/82 158/319/82 136/274/82 135/272/82 134/270/82 183/358/82 157/317/82 133/268/82 132/266/82 130/262/82 131/264/82 156/315/82 129/260/82 128/258/82 127/256/82 155/313/82 154/311/82 126/254/82 125/252/82 153/309/82 124/250/82 123/248/82 122/246/82 189/364/82 184/359/82 188/363/82 187/362/82
f 4/7/83 10/18/83 6/10/83
f 6/10/84 10/18/84 8/15/84
f 8/15/85 152/307/85 151/304/85 150/302/85 149/300/85 2/4/85
f 149/300/85 190/365/85 191/366/85 171/345/85 196/371/85
f 168/339/85 152/307/85 8/15/85 10/18/85 2/4/85 149/300/85 196/371/85 193/368/85 194/369/85 195/370/85 172/347/85 169/341/85 170/343/85 171/345/85 191/366/85 192/367/85
f 6/11/86 8/16/86 2/5/86 4/8/86
